<svg width="593" height="391" viewBox="0 0 593 391" fill="none" xmlns="http://www.w3.org/2000/svg">
<rect width="593" height="391" fill="#1E1E1E"/>
<rect width="593" height="391" fill="#2C2C2C"/>
<path fill-rule="evenodd" clip-rule="evenodd" d="M0 112.275V276.725V391H593V195V69H432.5H430V69.0242C361.456 70.3529 306.267 126.2 306.001 195H305.998C305.999 195.08 305.999 195.161 306 195.242C306 195.328 306 195.414 306 195.5C306 233.332 275.332 264 237.5 264C199.668 264 169 233.332 169 195.5C169 195.333 169.001 195.167 169.002 195H168.999C168.999 194.915 169 194.829 169 194.744L169 194.637L169 194.5C169 136.786 122.214 90 64.5 90C40.1597 90 17.7631 98.3217 0 112.275Z" fill="#D16C23"/>
<path fill-rule="evenodd" clip-rule="evenodd" d="M593 391V341.093C575.177 329.133 552.705 322 528.282 322C478.661 322 437.09 351.446 426.208 391H593ZM283.49 391H0V304H159.041H161.55V304.021C221.944 305.021 272.005 342.056 283.49 391Z" fill="#1B2925"/>
<path fill-rule="evenodd" clip-rule="evenodd" d="M268.5 115C324.557 115 370 69.5569 370 13.5C370 8.57694 369.65 3.73574 368.972 -1L168.028 -1C167.35 3.73574 167 8.57694 167 13.5C167 69.5569 212.443 115 268.5 115Z" fill="#416556"/>
</svg>
