<svg width="106" height="99" viewBox="0 0 106 99" fill="none" xmlns="http://www.w3.org/2000/svg">
<path d="M0.200873 7.236H7.11287V27H13.1969V7.236H20.1449V1.8H0.200873V7.236ZM29.0926 27H41.8006V21.996H29.0926V27ZM29.0926 6.804H41.8006V1.8H29.0926V6.804ZM29.0926 16.2H41.0806V11.304H29.0926V16.2ZM25.0606 1.8V27H30.8926V1.8H25.0606ZM52.872 22.14H66.192L65.796 17.496H53.304L52.872 22.14ZM59.46 11.052L63.024 19.224L62.808 20.772L65.832 27H72.744L59.46 0.215999L46.212 27H53.088L56.22 20.52L55.932 19.188L59.46 11.052ZM84.0246 14.148L90.9006 24.66L97.8126 14.148L99.3246 27H105.733L101.665 0.539999L90.9006 15.912L80.1726 0.539999L76.1046 27H82.5126L84.0246 14.148ZM6.13103 37.8V63H22.331V57.78H12.215V37.8H6.13103ZM31.3426 63H44.0506V57.996H31.3426V63ZM31.3426 42.804H44.0506V37.8H31.3426V42.804ZM31.3426 52.2H43.3306V47.304H31.3426V52.2ZM27.3106 37.8V63H33.1426V37.8H27.3106ZM55.122 58.14H68.442L68.046 53.496H55.554L55.122 58.14ZM61.71 47.052L65.274 55.224L65.058 56.772L68.082 63H74.994L61.71 36.216L48.462 63H55.338L58.47 56.52L58.182 55.188L61.71 47.052ZM79.7946 37.8V63H86.0586V37.8H79.7946ZM88.7946 63C91.5546 63 93.9426 62.484 95.9586 61.452C97.9746 60.42 99.5346 58.968 100.639 57.096C101.743 55.2 102.295 52.968 102.295 50.4C102.295 47.808 101.743 45.576 100.639 43.704C99.5346 41.832 97.9746 40.38 95.9586 39.348C93.9426 38.316 91.5546 37.8 88.7946 37.8H83.8266V43.2H88.5786C89.5386 43.2 90.4626 43.32 91.3506 43.56C92.2626 43.8 93.0546 44.196 93.7266 44.748C94.4226 45.3 94.9746 46.044 95.3826 46.98C95.7906 47.892 95.9946 49.032 95.9946 50.4C95.9946 51.768 95.7906 52.92 95.3826 53.856C94.9746 54.768 94.4226 55.5 93.7266 56.052C93.0546 56.604 92.2626 57 91.3506 57.24C90.4626 57.48 89.5386 57.6 88.5786 57.6H83.8266V63H88.7946ZM6.13103 73.8V99H12.395V73.8H6.13103ZM15.131 99C17.891 99 20.279 98.484 22.295 97.452C24.311 96.42 25.871 94.968 26.975 93.096C28.079 91.2 28.631 88.968 28.631 86.4C28.631 83.808 28.079 81.576 26.975 79.704C25.871 77.832 24.311 76.38 22.295 75.348C20.279 74.316 17.891 73.8 15.131 73.8H10.163V79.2H14.915C15.875 79.2 16.799 79.32 17.687 79.56C18.599 79.8 19.391 80.196 20.063 80.748C20.759 81.3 21.311 82.044 21.719 82.98C22.127 83.892 22.331 85.032 22.331 86.4C22.331 87.768 22.127 88.92 21.719 89.856C21.311 90.768 20.759 91.5 20.063 92.052C19.391 92.604 18.599 93 17.687 93.24C16.799 93.48 15.875 93.6 14.915 93.6H10.163V99H15.131ZM38.7254 99H51.4334V93.996H38.7254V99ZM38.7254 78.804H51.4334V73.8H38.7254V78.804ZM38.7254 88.2H50.7134V83.304H38.7254V88.2ZM34.6934 73.8V99H40.5254V73.8H34.6934ZM62.5048 94.14H75.8248L75.4288 89.496H62.9368L62.5048 94.14ZM69.0928 83.052L72.6568 91.224L72.4408 92.772L75.4648 99H82.3768L69.0928 72.216L55.8448 99H62.7208L65.8528 92.52L65.5648 91.188L69.0928 83.052ZM87.1774 73.8V99H103.377V93.78H93.2614V73.8H87.1774Z" fill="#2C2C2C"/>
</svg>
